# xmcd CD database file
#
# Track frame offsets:
#	150
#	16380
#	31654
#	50880
#	72584
#	90849
#	110494
#	123916
#	145612
#	167735
#	184423
#
# Disc length: 2641 seconds
#
# Revision: 0
# Processed by: cddbd v1.5.2PL0 Copyright (c) Steve Scherf et al.
# Submitted via: CDex 1.51
#
DISCID=910a4f0b
DTITLE=Dani Gurgel - Nosso
DYEAR=2008
DGENRE=Jazz
TTITLE0=Festa de Santo
TTITLE1=Essa Nao
TTITLE2=Samba do Jazz
TTITLE3=Da Pá Virada
TTITLE4=Sem Morada
TTITLE5=Laco na Lua
TTITLE6=Tres Tristes Tropicos
TTITLE7=Neneca
TTITLE8=Santuario do Pau de Aroeira
TTITLE9=Tambor Guia
TTITLE10=Da Licenca
EXTD=YEAR: 2008
EXTT0=
EXTT1=
EXTT2=
EXTT3=
EXTT4=
EXTT5=
EXTT6=
EXTT7=
EXTT8=
EXTT9=
EXTT10=
PLAYORDER=
